<?xml version="1.0" encoding="UTF-8" standalone="no"?>
<!-- Created with Inkscape (http://www.inkscape.org/) -->

<svg
   xmlns:osb="http://www.openswatchbook.org/uri/2009/osb"
   xmlns:dc="http://purl.org/dc/elements/1.1/"
   xmlns:cc="http://creativecommons.org/ns#"
   xmlns:rdf="http://www.w3.org/1999/02/22-rdf-syntax-ns#"
   xmlns:svg="http://www.w3.org/2000/svg"
   xmlns="http://www.w3.org/2000/svg"
   xmlns:xlink="http://www.w3.org/1999/xlink"
   xmlns:sodipodi="http://sodipodi.sourceforge.net/DTD/sodipodi-0.dtd"
   xmlns:inkscape="http://www.inkscape.org/namespaces/inkscape"
   sodipodi:docname="earth.svg.2018_06_03_07_33_16.0.svg"
   viewBox="0 0 192 192"
   height="192"
   width="192"
   xml:space="preserve"
   inkscape:version="0.92.1 r15371"
   version="1.1"
   id="svg2"
   inkscape:export-filename="/home/joker/Projects/Kunzisoft/Inkscape/Android Icon Template_low"
   inkscape:export-xdpi="22.5"
   inkscape:export-ydpi="22.5"><sodipodi:namedview
     inkscape:current-layer="g10"
     inkscape:window-maximized="1"
     inkscape:window-y="-8"
     inkscape:window-x="-8"
     inkscape:cy="95.523828"
     inkscape:cx="116.91845"
     inkscape:zoom="4"
     showgrid="false"
     id="namedview4"
     inkscape:window-height="1017"
     inkscape:window-width="1920"
     inkscape:pageshadow="2"
     inkscape:pageopacity="0"
     guidetolerance="10"
     gridtolerance="10"
     objecttolerance="10"
     borderopacity="1"
     bordercolor="#666666"
     pagecolor="#d7d7d7"
     inkscape:snap-bbox="true"
     inkscape:bbox-paths="true"
     inkscape:bbox-nodes="true"
     inkscape:snap-bbox-edge-midpoints="true"
     inkscape:snap-bbox-midpoints="true"
     inkscape:object-paths="true"
     inkscape:snap-intersection-paths="true"
     inkscape:snap-smooth-nodes="true"
     inkscape:snap-midpoints="true"><inkscape:grid
       empspacing="4"
       type="xygrid"
       id="grid4646" /></sodipodi:namedview><metadata
     id="metadata8"><rdf:RDF><cc:Work
         rdf:about=""><dc:format>image/svg+xml</dc:format><dc:type
           rdf:resource="http://purl.org/dc/dcmitype/StillImage" /><dc:title /></cc:Work></rdf:RDF></metadata><defs
     id="defs6"><linearGradient
       inkscape:collect="always"
       id="linearGradient6627"><stop
         style="stop-color:#fafafa;stop-opacity:1;"
         offset="0"
         id="stop6623" /><stop
         style="stop-color:#fafafa;stop-opacity:0;"
         offset="1"
         id="stop6625" /></linearGradient><linearGradient
       inkscape:collect="always"
       id="linearGradient6545"><stop
         style="stop-color:#000000;stop-opacity:1;"
         offset="0"
         id="stop6541" /><stop
         style="stop-color:#000000;stop-opacity:0;"
         offset="1"
         id="stop6543" /></linearGradient><linearGradient
       id="linearGradient6482"
       osb:paint="solid"><stop
         style="stop-color:#000000;stop-opacity:0.97254902;"
         offset="0"
         id="stop6480" /></linearGradient><linearGradient
       id="linearGradient6474"
       osb:paint="solid"><stop
         style="stop-color:#000000;stop-opacity:0.96285713;"
         offset="0"
         id="stop6472" /></linearGradient><marker
       inkscape:isstock="true"
       style="overflow:visible"
       id="marker11240"
       refX="0.0"
       refY="0.0"
       orient="auto"
       inkscape:stockid="Arrow1Mstart"><path
         transform="scale(0.4) translate(10,0)"
         style="fill-rule:evenodd;stroke:#000000;stroke-width:1pt;stroke-opacity:1;fill:#000000;fill-opacity:1"
         d="M 0.0,0.0 L 5.0,-5.0 L -12.5,0.0 L 5.0,5.0 L 0.0,0.0 z "
         id="path11242" /></marker><marker
       inkscape:isstock="true"
       style="overflow:visible;"
       id="Arrow1Mend"
       refX="0.0"
       refY="0.0"
       orient="auto"
       inkscape:stockid="Arrow1Mend"><path
         transform="scale(0.4) rotate(180) translate(10,0)"
         style="fill-rule:evenodd;stroke:#000000;stroke-width:1pt;stroke-opacity:1;fill:#000000;fill-opacity:1"
         d="M 0.0,0.0 L 5.0,-5.0 L -12.5,0.0 L 5.0,5.0 L 0.0,0.0 z "
         id="path10431" /></marker><marker
       inkscape:isstock="true"
       style="overflow:visible"
       id="marker11224"
       refX="0.0"
       refY="0.0"
       orient="auto"
       inkscape:stockid="Arrow1Mstart"><path
         transform="scale(0.4) translate(10,0)"
         style="fill-rule:evenodd;stroke:#000000;stroke-width:1pt;stroke-opacity:1;fill:#000000;fill-opacity:1"
         d="M 0.0,0.0 L 5.0,-5.0 L -12.5,0.0 L 5.0,5.0 L 0.0,0.0 z "
         id="path11226" /></marker><marker
       inkscape:isstock="true"
       style="overflow:visible"
       id="marker11098"
       refX="0.0"
       refY="0.0"
       orient="auto"
       inkscape:stockid="Arrow1Mstart"><path
         transform="scale(0.4) translate(10,0)"
         style="fill-rule:evenodd;stroke:#000000;stroke-width:1pt;stroke-opacity:1;fill:#000000;fill-opacity:1"
         d="M 0.0,0.0 L 5.0,-5.0 L -12.5,0.0 L 5.0,5.0 L 0.0,0.0 z "
         id="path11100" /></marker><marker
       inkscape:isstock="true"
       style="overflow:visible"
       id="marker10904"
       refX="0.0"
       refY="0.0"
       orient="auto"
       inkscape:stockid="Arrow1Mstart"><path
         transform="scale(0.4) translate(10,0)"
         style="fill-rule:evenodd;stroke:#000000;stroke-width:1pt;stroke-opacity:1;fill:#000000;fill-opacity:1"
         d="M 0.0,0.0 L 5.0,-5.0 L -12.5,0.0 L 5.0,5.0 L 0.0,0.0 z "
         id="path10906" /></marker><marker
       inkscape:isstock="true"
       style="overflow:visible"
       id="marker10888"
       refX="0.0"
       refY="0.0"
       orient="auto"
       inkscape:stockid="Arrow1Mstart"><path
         transform="scale(0.4) translate(10,0)"
         style="fill-rule:evenodd;stroke:#000000;stroke-width:1pt;stroke-opacity:1;fill:#000000;fill-opacity:1"
         d="M 0.0,0.0 L 5.0,-5.0 L -12.5,0.0 L 5.0,5.0 L 0.0,0.0 z "
         id="path10890" /></marker><marker
       inkscape:isstock="true"
       style="overflow:visible"
       id="marker10882"
       refX="0.0"
       refY="0.0"
       orient="auto"
       inkscape:stockid="Arrow1Mstart"><path
         transform="scale(0.4) translate(10,0)"
         style="fill-rule:evenodd;stroke:#000000;stroke-width:1pt;stroke-opacity:1;fill:#000000;fill-opacity:1"
         d="M 0.0,0.0 L 5.0,-5.0 L -12.5,0.0 L 5.0,5.0 L 0.0,0.0 z "
         id="path10884" /></marker><marker
       inkscape:stockid="Arrow1Mstart"
       orient="auto"
       refY="0.0"
       refX="0.0"
       id="marker10851"
       style="overflow:visible"
       inkscape:isstock="true"><path
         id="path10853"
         d="M 0.0,0.0 L 5.0,-5.0 L -12.5,0.0 L 5.0,5.0 L 0.0,0.0 z "
         style="fill-rule:evenodd;stroke:#000000;stroke-width:1pt;stroke-opacity:1;fill:#000000;fill-opacity:1"
         transform="scale(0.4) translate(10,0)" /></marker><marker
       inkscape:isstock="true"
       style="overflow:visible"
       id="Arrow1Mstart"
       refX="0.0"
       refY="0.0"
       orient="auto"
       inkscape:stockid="Arrow1Mstart"><path
         transform="scale(0.4) translate(10,0)"
         style="fill-rule:evenodd;stroke:#000000;stroke-width:1pt;stroke-opacity:1;fill:#000000;fill-opacity:1"
         d="M 0.0,0.0 L 5.0,-5.0 L -12.5,0.0 L 5.0,5.0 L 0.0,0.0 z "
         id="path10428" /></marker><marker
       inkscape:isstock="true"
       style="overflow:visible"
       id="marker10769"
       refX="0.0"
       refY="0.0"
       orient="auto"
       inkscape:stockid="Arrow2Lstart"><path
         transform="scale(1.1) translate(1,0)"
         d="M 8.7185878,4.0337352 L -2.2072895,0.016013256 L 8.7185884,-4.0017078 C 6.9730900,-1.6296469 6.9831476,1.6157441 8.7185878,4.0337352 z "
         style="fill-rule:evenodd;stroke-width:0.625;stroke-linejoin:round;stroke:#000000;stroke-opacity:1;fill:#000000;fill-opacity:1"
         id="path10771" /></marker><marker
       inkscape:isstock="true"
       style="overflow:visible"
       id="Arrow2Mstart"
       refX="0.0"
       refY="0.0"
       orient="auto"
       inkscape:stockid="Arrow2Mstart"><path
         transform="scale(0.6) translate(0,0)"
         d="M 8.7185878,4.0337352 L -2.2072895,0.016013256 L 8.7185884,-4.0017078 C 6.9730900,-1.6296469 6.9831476,1.6157441 8.7185878,4.0337352 z "
         style="fill-rule:evenodd;stroke-width:0.625;stroke-linejoin:round;stroke:#000000;stroke-opacity:1;fill:#000000;fill-opacity:1"
         id="path10446" /></marker><marker
       inkscape:isstock="true"
       style="overflow:visible"
       id="Arrow1Sstart"
       refX="0.0"
       refY="0.0"
       orient="auto"
       inkscape:stockid="Arrow1Sstart"><path
         transform="scale(0.2) translate(6,0)"
         style="fill-rule:evenodd;stroke:#000000;stroke-width:1pt;stroke-opacity:1;fill:#000000;fill-opacity:1"
         d="M 0.0,0.0 L 5.0,-5.0 L -12.5,0.0 L 5.0,5.0 L 0.0,0.0 z "
         id="path10434" /></marker><marker
       inkscape:isstock="true"
       style="overflow:visible"
       id="Arrow2Lstart"
       refX="0.0"
       refY="0.0"
       orient="auto"
       inkscape:stockid="Arrow2Lstart"><path
         transform="scale(1.1) translate(1,0)"
         d="M 8.7185878,4.0337352 L -2.2072895,0.016013256 L 8.7185884,-4.0017078 C 6.9730900,-1.6296469 6.9831476,1.6157441 8.7185878,4.0337352 z "
         style="fill-rule:evenodd;stroke-width:0.625;stroke-linejoin:round;stroke:#000000;stroke-opacity:1;fill:#000000;fill-opacity:1"
         id="path10440" /></marker><marker
       inkscape:isstock="true"
       style="overflow:visible"
       id="Arrow1Lstart"
       refX="0.0"
       refY="0.0"
       orient="auto"
       inkscape:stockid="Arrow1Lstart"><path
         transform="scale(0.8) translate(12.5,0)"
         style="fill-rule:evenodd;stroke:#000000;stroke-width:1pt;stroke-opacity:1;fill:#000000;fill-opacity:1"
         d="M 0.0,0.0 L 5.0,-5.0 L -12.5,0.0 L 5.0,5.0 L 0.0,0.0 z "
         id="path10422" /></marker><clipPath
       clipPathUnits="userSpaceOnUse"
       id="clipPath16"><path
         d="M 0,192 192,192 192,0 0,0 0,192 Z"
         id="path18"
         inkscape:connector-curvature="0" /></clipPath><clipPath
       clipPathUnits="userSpaceOnUse"
       id="clipPath26"><path
         d="M -4.88281e-4,192 192,192 192,-4.88281e-4 l -192.000488281,0 0,192.000488281 z"
         id="path28"
         inkscape:connector-curvature="0" /></clipPath><clipPath
       clipPathUnits="userSpaceOnUse"
       id="clipPath34"><path
         d="M -4.88281e-4,192 192,192 192,-4.88281e-4 l -192.000488281,0 0,192.000488281 z"
         id="path36"
         inkscape:connector-curvature="0" /></clipPath><clipPath
       clipPathUnits="userSpaceOnUse"
       id="clipPath38"><path
         d="M 0,192 192,192 192,0 0,0 0,192 Z"
         id="path40"
         inkscape:connector-curvature="0" /></clipPath><clipPath
       clipPathUnits="userSpaceOnUse"
       id="clipPath42"><path
         d="M 0,192 192,192 192,0 0,0 0,192 Z"
         id="path44"
         inkscape:connector-curvature="0" /></clipPath><clipPath
       clipPathUnits="userSpaceOnUse"
       id="clipPath116"><path
         d="m 0,192 192,0 0,-192.000488281 -192,0 L 0,192 Z"
         id="path118"
         inkscape:connector-curvature="0" /></clipPath><clipPath
       clipPathUnits="userSpaceOnUse"
       id="clipPath120"><path
         d="m 0,192 192,0 0,-191.999511719 -192,0 L 0,192 Z"
         id="path122"
         inkscape:connector-curvature="0" /></clipPath><clipPath
       clipPathUnits="userSpaceOnUse"
       id="clipPath124"><path
         d="M 192,192 0,192 0,0 l 192,0 0,192 z"
         id="path126"
         inkscape:connector-curvature="0" /></clipPath><filter
       id="filter10356"
       inkscape:label="Drop Shadow"
       style="color-interpolation-filters:sRGB;"><feFlood
         id="feFlood10358"
         result="flood"
         flood-color="rgb(0,0,0)"
         flood-opacity="0.196078" /><feComposite
         id="feComposite10360"
         result="composite1"
         operator="in"
         in2="SourceGraphic"
         in="flood" /><feGaussianBlur
         id="feGaussianBlur10362"
         result="blur"
         stdDeviation="4"
         in="composite1" /><feOffset
         id="feOffset10364"
         result="offset"
         dy="4"
         dx="4" /><feComposite
         id="feComposite10366"
         result="composite2"
         operator="over"
         in2="offset"
         in="SourceGraphic" /></filter><marker
       inkscape:isstock="true"
       style="overflow:visible"
       id="Arrow1Sstart-3"
       refX="0"
       refY="0"
       orient="auto"
       inkscape:stockid="Arrow1Sstart"><path
         transform="matrix(0.2,0,0,0.2,1.2,0)"
         style="fill:#000000;fill-opacity:1;fill-rule:evenodd;stroke:#000000;stroke-width:1pt;stroke-opacity:1"
         d="M 0,0 5,-5 -12.5,0 5,5 0,0 Z"
         id="path10434-6"
         inkscape:connector-curvature="0" /></marker><marker
       inkscape:isstock="true"
       style="overflow:visible"
       id="Arrow1Sstart-3-7"
       refX="0"
       refY="0"
       orient="auto"
       inkscape:stockid="Arrow1Sstart"><path
         transform="matrix(0.2,0,0,0.2,1.2,0)"
         style="fill:#000000;fill-opacity:1;fill-rule:evenodd;stroke:#000000;stroke-width:1pt;stroke-opacity:1"
         d="M 0,0 5,-5 -12.5,0 5,5 0,0 Z"
         id="path10434-6-5"
         inkscape:connector-curvature="0" /></marker><marker
       inkscape:isstock="true"
       style="overflow:visible"
       id="Arrow2Mstart-3"
       refX="0"
       refY="0"
       orient="auto"
       inkscape:stockid="Arrow2Mstart"><path
         transform="scale(0.6,0.6)"
         d="M 8.7185878,4.0337352 -2.2072895,0.01601326 8.7185884,-4.0017078 c -1.7454984,2.3720609 -1.7354408,5.6174519 -6e-7,8.035443 z"
         style="fill:#000000;fill-opacity:1;fill-rule:evenodd;stroke:#000000;stroke-width:0.625;stroke-linejoin:round;stroke-opacity:1"
         id="path10446-5"
         inkscape:connector-curvature="0" /></marker><filter
       style="color-interpolation-filters:sRGB;"
       inkscape:label="Drop Shadow"
       id="filter6016"><feFlood
         flood-opacity="0.239216"
         flood-color="rgb(0,0,0)"
         result="flood"
         id="feFlood6018" /><feComposite
         in="flood"
         in2="SourceGraphic"
         operator="in"
         result="composite1"
         id="feComposite6020" /><feGaussianBlur
         in="composite1"
         stdDeviation="2"
         result="blur"
         id="feGaussianBlur6022" /><feOffset
         dx="0"
         dy="4"
         result="offset"
         id="feOffset6024" /><feComposite
         in="SourceGraphic"
         in2="offset"
         operator="over"
         result="fbSourceGraphic"
         id="feComposite6026" /><feColorMatrix
         result="fbSourceGraphicAlpha"
         in="fbSourceGraphic"
         values="0 0 0 -1 0 0 0 0 -1 0 0 0 0 -1 0 0 0 0 1 0"
         id="feColorMatrix6028" /><feFlood
         id="feFlood6030"
         flood-opacity="0.121569"
         flood-color="rgb(0,0,0)"
         result="flood"
         in="fbSourceGraphic" /><feComposite
         id="feComposite6032"
         in2="fbSourceGraphic"
         in="flood"
         operator="in"
         result="composite1" /><feGaussianBlur
         id="feGaussianBlur6034"
         in="composite1"
         stdDeviation="2"
         result="blur" /><feOffset
         id="feOffset6036"
         dx="0"
         dy="0"
         result="offset" /><feComposite
         id="feComposite6038"
         in2="offset"
         in="fbSourceGraphic"
         operator="over"
         result="composite2" /></filter><filter
       style="color-interpolation-filters:sRGB;"
       inkscape:label="Drop Shadow"
       id="filter6045"><feFlood
         flood-opacity="0.2"
         flood-color="rgb(0,0,0)"
         result="flood"
         id="feFlood6047" /><feComposite
         in="flood"
         in2="SourceGraphic"
         operator="in"
         result="composite1"
         id="feComposite6049" /><feGaussianBlur
         in="composite1"
         stdDeviation="4"
         result="blur"
         id="feGaussianBlur6051" /><feOffset
         dx="0"
         dy="4"
         result="offset"
         id="feOffset6053" /><feComposite
         in="SourceGraphic"
         in2="offset"
         operator="over"
         result="composite2"
         id="feComposite6055" /></filter><radialGradient
       inkscape:collect="always"
       xlink:href="#linearGradient6545"
       id="radialGradient6547"
       cx="149.59969"
       cy="-10.800316"
       fx="149.59969"
       fy="-10.800316"
       r="70.399277"
       gradientUnits="userSpaceOnUse" /><filter
       inkscape:collect="always"
       style="color-interpolation-filters:sRGB"
       id="filter6617"
       x="-0.4848"
       width="1.9696"
       y="-0.4848"
       height="1.9696"><feGaussianBlur
         inkscape:collect="always"
         stdDeviation="28.441308"
         id="feGaussianBlur6619" /></filter><radialGradient
       inkscape:collect="always"
       xlink:href="#linearGradient6627"
       id="radialGradient6629"
       cx="-0.40031737"
       cy="-135.70923"
       fx="-0.40031737"
       fy="-135.70923"
       r="106.35697"
       gradientTransform="matrix(1,0,0,1.3037078,0,23.324857)"
       gradientUnits="userSpaceOnUse" /></defs><g
     style="display:inline"
     id="g10"
     inkscape:groupmode="layer"
     inkscape:label="Icon Template"
     transform="matrix(1.25,0,0,-1.25,0,192)"><circle
       style="opacity:1;fill:#03a9f4;fill-opacity:1;fill-rule:nonzero;stroke:#000000;stroke-width:0;stroke-linecap:square;stroke-linejoin:miter;stroke-miterlimit:4;stroke-dasharray:none;stroke-dashoffset:10.62500095;stroke-opacity:0;paint-order:stroke markers fill"
       id="path5461"
       transform="scale(1,-1)"
       cx="76.799683"
       cy="-76.800316"
       r="70.399277" /><path
       style="fill:#388e3c;fill-rule:evenodd;stroke:#000000;stroke-width:0.80000001px;stroke-linecap:butt;stroke-linejoin:miter;stroke-opacity:0.02173911"
       d="M 126.41556,126.41604 C 121.6,121.60048 124.8,111.9996 124.8,111.9996 c 0,0 -0.4008,-3.2 2.9996,-3.2 3.4004,0 3.4004,6.4 3.4004,6.4 l 3.2,-6.4 -3.2,-9.5992 -6.4,-3.2008 -6.4,-3.2 v -6.4 l -3.2,-9.59928 -3.2,-3.20072 -6.4,-3.2 7.8,-15.9992 5,0 6.4,6.3992 2.9996,3.2 -2.9996,3.2 6.4,6.4 3.2,6.4 4.39919,-12.317745 8.1e-4,-4.982255 4.1,4.5 -0.859,1.817113 -1.241,14.182887 5.1863,6.364645 c -1.07781,8.209917 -5.90955,23.632025 -19.57074,36.851795 z"
       id="path5471"
       inkscape:connector-curvature="0"
       sodipodi:nodetypes="ccsccccccccccccccccccccccc" /><path
       style="fill:#388e3c;fill-opacity:1;fill-rule:evenodd;stroke:#000000;stroke-width:0.80000001px;stroke-linecap:butt;stroke-linejoin:miter;stroke-opacity:0"
       d="m 145.37327,60.7996 -4.57327,-9.6 -6.4,-3.2 -9.6,3.2 -6.4,-6.4 -9.6,-9.6 -3.2,-12.8 3.2,-6.1992 h 3.85137 c 13.29863,7.9492 27.33143,22.199195 32.7219,44.599195"
       id="path5473"
       inkscape:connector-curvature="0"
       sodipodi:nodetypes="cccccccccc" /><path
       style="fill:#388e3c;fill-opacity:1;fill-rule:evenodd;stroke:#000000;stroke-width:0.80000001px;stroke-linecap:butt;stroke-linejoin:miter;stroke-opacity:0"
       d="m 33.927208,76.7996 v -6.573512 l -2.1,-1.658579 -1.7,3.2 -1.2,9 L 23.8,81.2996 l -7.8004,-1.3 -6.3996,-9.6 6.4,-12.8 9.5996,3.2 4e-4,-6.3992 c -9.104274,-9.560204 -2.543267,-7.696453 0.1996,-12.8008 l 12.6004,3.2 9.6,-9.6 c 2.262742,-2.262742 12.8,-3.2 12.8,-3.2 L 70.4,25.6004 73.6,9.5996 67.2,7.0494276 C 1.6,15.9996 -21.380982,110.42001 48,140.7996 c 2.04817,-1.12122 9.307148,-7.21892 9.6,-9.6 0.248821,-2.02308 -19.431016,-7.65194 -19.192234,-9.66646 0.402513,-3.39586 1.611226,-6.18038 6.392234,-6.33354 2.927197,-0.0938 7.034085,1.05145 12.8,3.2 l 4.713804,-11.1138 -7.914124,1.5138 -9.59968,-9.6 -6.4,-6.4 z"
       id="path5475"
       inkscape:connector-curvature="0"
       sodipodi:nodetypes="cccccccccccccscccccssscccccc" /><circle
       r="70.399277"
       cy="-76.800316"
       cx="76.799683"
       transform="scale(1,-1)"
       id="circle6539"
       style="opacity:1;fill:url(#radialGradient6547);fill-opacity:1;fill-rule:nonzero;stroke:#000000;stroke-width:0;stroke-linecap:square;stroke-linejoin:miter;stroke-miterlimit:4;stroke-dasharray:none;stroke-dashoffset:10.62500095;stroke-opacity:0;paint-order:stroke markers fill;filter:url(#filter6617)" /><ellipse
       style="opacity:1;fill:url(#radialGradient6629);fill-opacity:1;fill-rule:nonzero;stroke:#000000;stroke-width:0;stroke-linecap:square;stroke-linejoin:miter;stroke-miterlimit:4;stroke-dasharray:none;stroke-dashoffset:10.62500095;stroke-opacity:0;paint-order:stroke markers fill;filter:url(#filter6617)"
       id="circle6621"
       transform="scale(1,-1)"
       cx="76.799683"
       cy="-76.800316"
       rx="53.999275"
       ry="70.399277" /></g></svg>